<?xml version="1.0" encoding="UTF-8"?>
<svg xmlns="http://www.w3.org/2000/svg" xmlns:xlink="http://www.w3.org/1999/xlink" width="40pt" height="40pt" viewBox="0 0 40 40" version="1.1">
<g id="surface1">
<path style=" stroke:none;fill-rule:nonzero;fill:rgb(0%,0%,0%);fill-opacity:1;" d="M 33.859375 0.464844 L 5.917969 0.464844 C 2.910156 0.464844 0.464844 2.910156 0.464844 5.917969 L 0.464844 33.855469 C 0.464844 36.863281 2.910156 39.308594 5.917969 39.308594 L 33.859375 39.308594 C 36.863281 39.308594 39.308594 36.863281 39.308594 33.855469 L 39.308594 5.917969 C 39.308594 2.910156 36.863281 0.464844 33.859375 0.464844 Z M 5.519531 1.28125 L 5.519531 4.40625 C 5.519531 4.625 5.699219 4.804688 5.917969 4.804688 C 6.136719 4.804688 6.3125 4.625 6.3125 4.40625 L 6.3125 1.261719 L 8.046875 1.261719 L 8.046875 4.40625 C 8.046875 4.625 8.222656 4.804688 8.441406 4.804688 C 8.664062 4.804688 8.84375 4.625 8.84375 4.40625 L 8.84375 1.261719 L 10.574219 1.261719 L 10.574219 4.40625 C 10.574219 4.625 10.75 4.804688 10.972656 4.804688 C 11.191406 4.804688 11.367188 4.625 11.367188 4.40625 L 11.367188 1.261719 L 33.859375 1.261719 C 36.421875 1.261719 38.515625 3.347656 38.515625 5.917969 L 38.515625 12.46875 L 30.675781 12.46875 C 28.3125 9.039062 24.359375 6.78125 19.886719 6.78125 C 15.414062 6.78125 11.460938 9.039062 9.09375 12.46875 L 1.257812 12.46875 L 1.257812 5.917969 C 1.257812 3.480469 3.136719 1.484375 5.519531 1.28125 Z M 19.886719 7.578125 C 26.671875 7.578125 32.195312 13.097656 32.195312 19.886719 C 32.195312 26.671875 26.671875 32.195312 19.886719 32.195312 C 13.097656 32.195312 7.578125 26.671875 7.578125 19.886719 C 7.578125 13.097656 13.097656 7.578125 19.886719 7.578125 Z M 33.859375 38.511719 L 5.917969 38.511719 C 3.347656 38.511719 1.261719 36.421875 1.261719 33.855469 L 1.261719 13.261719 L 8.597656 13.261719 C 7.453125 15.210938 6.78125 17.46875 6.78125 19.886719 C 6.78125 27.113281 12.660156 32.988281 19.886719 32.988281 C 27.109375 32.988281 32.988281 27.113281 32.988281 19.886719 C 32.988281 17.46875 32.320312 15.210938 31.175781 13.261719 L 38.515625 13.261719 L 38.515625 33.855469 C 38.511719 36.421875 36.421875 38.511719 33.859375 38.511719 Z M 33.859375 38.511719 "/>
<path style=" stroke:none;fill-rule:nonzero;fill:rgb(0%,0%,0%);fill-opacity:1;" d="M 19.886719 28.847656 C 24.828125 28.847656 28.847656 24.828125 28.847656 19.886719 C 28.847656 14.945312 24.828125 10.925781 19.886719 10.925781 C 14.945312 10.925781 10.925781 14.945312 10.925781 19.886719 C 10.925781 24.828125 14.945312 28.847656 19.886719 28.847656 Z M 19.886719 11.71875 C 24.390625 11.71875 28.054688 15.382812 28.054688 19.886719 C 28.054688 24.390625 24.390625 28.050781 19.886719 28.050781 C 15.382812 28.050781 11.71875 24.390625 11.71875 19.886719 C 11.71875 15.382812 15.382812 11.71875 19.886719 11.71875 Z M 19.886719 11.71875 "/>
<path style=" stroke:none;fill-rule:nonzero;fill:rgb(0%,0%,0%);fill-opacity:1;" d="M 19.886719 25.195312 C 22.8125 25.195312 25.199219 22.8125 25.199219 19.886719 C 25.199219 16.957031 22.8125 14.574219 19.886719 14.574219 C 16.957031 14.574219 14.578125 16.957031 14.578125 19.886719 C 14.574219 22.8125 16.957031 25.195312 19.886719 25.195312 Z M 19.886719 15.371094 C 22.375 15.371094 24.402344 17.394531 24.402344 19.886719 C 24.402344 22.375 22.375 24.402344 19.886719 24.402344 C 17.398438 24.402344 15.371094 22.375 15.371094 19.886719 C 15.371094 17.398438 17.394531 15.371094 19.886719 15.371094 Z M 19.886719 15.371094 "/>
<path style=" stroke:none;fill-rule:nonzero;fill:rgb(0%,0%,0%);fill-opacity:1;" d="M 32.734375 9.542969 L 34.101562 9.542969 C 35.25 9.542969 36.183594 8.609375 36.183594 7.460938 L 36.183594 6.09375 C 36.183594 4.941406 35.25 4.007812 34.101562 4.007812 L 32.734375 4.007812 C 31.585938 4.007812 30.652344 4.941406 30.652344 6.09375 L 30.652344 7.460938 C 30.652344 8.609375 31.585938 9.542969 32.734375 9.542969 Z M 31.445312 6.09375 C 31.445312 5.382812 32.023438 4.804688 32.734375 4.804688 L 34.101562 4.804688 C 34.8125 4.804688 35.386719 5.382812 35.386719 6.09375 L 35.386719 7.460938 C 35.386719 8.167969 34.808594 8.746094 34.101562 8.746094 L 32.734375 8.746094 C 32.023438 8.746094 31.445312 8.167969 31.445312 7.460938 Z M 31.445312 6.09375 "/>
</g>
</svg>
