<svg height='300px' width='300px'  fill="#000000" xmlns="http://www.w3.org/2000/svg" xmlns:xlink="http://www.w3.org/1999/xlink" version="1.1" x="0px" y="0px" viewBox="0 0 100 100" enable-background="new 0 0 100 100" xml:space="preserve"><g><path fill="#000000" d="M44.792,49.248c11.648,0,21.124-9.476,21.124-21.124C65.916,16.477,56.439,7,44.792,7   s-21.124,9.477-21.124,21.125C23.667,39.772,33.144,49.248,44.792,49.248z M44.792,13c8.339,0,15.124,6.785,15.124,15.125   c0,8.339-6.785,15.124-15.124,15.124s-15.124-6.784-15.124-15.124C29.667,19.785,36.452,13,44.792,13z"></path><path fill="#000000" d="M59.91,81.841H14.563V81.76c0-10.005,8.14-18.145,18.145-18.145h19.129c1.657,0,3-1.343,3-3s-1.343-3-3-3   H32.708c-13.313,0-24.145,10.832-24.145,24.145v3.081c0,1.657,1.343,3,3,3H59.91c1.657,0,3-1.343,3-3S61.567,81.841,59.91,81.841z"></path><path fill="#000000" d="M74.674,56.91c-2.195,0-3.981,1.786-3.981,3.98c0,2.196,1.786,3.982,3.981,3.982   c2.196,0,3.982-1.786,3.982-3.982C78.656,58.696,76.87,56.91,74.674,56.91z"></path><path fill="#000000" d="M74.673,44.729c-8.865,0-15.809,7.123-15.809,16.215c0,1.936,0.297,3.731,0.884,5.338   c2.295,6.272,5.286,11.757,7.924,16.595c1.632,2.993,3.174,5.821,4.247,8.31C72.393,92.288,73.477,93,74.674,93   c1.198,0,2.281-0.713,2.755-1.813c1.076-2.499,2.622-5.334,4.259-8.337c2.636-4.837,5.625-10.32,7.91-16.566   c0.587-1.603,0.885-3.399,0.885-5.339C90.483,51.851,83.539,44.729,74.673,44.729z M83.964,64.22   c-2.132,5.829-5.007,11.104-7.544,15.758c-0.599,1.099-1.186,2.175-1.747,3.229c-0.557-1.045-1.139-2.113-1.732-3.202   c-2.539-4.655-5.416-9.932-7.557-15.783c-0.345-0.944-0.52-2.047-0.52-3.278c0-5.728,4.309-10.215,9.809-10.215   c5.501,0,9.81,4.487,9.81,10.215C84.483,62.177,84.309,63.279,83.964,64.22z"></path></g></svg>