<svg height='300px' width='300px'  fill="#000000" xmlns="http://www.w3.org/2000/svg" xmlns:xlink="http://www.w3.org/1999/xlink" version="1.1" x="0px" y="0px" viewBox="0 0 512 512" style="enable-background:new 0 0 512 512;" xml:space="preserve"><g><g><g><g><path d="M346,490H26c-2.209,0-4-1.791-4-4V386c0-90.43,73.57-164,164-164c90.43,0,164,73.57,164,164v100      C350,488.209,348.209,490,346,490z M30,482h312v-96c0-86.02-69.98-156-156-156c-86.019,0-156,69.98-156,156V482z"></path></g><g><path d="M86,490c-2.209,0-4-1.791-4-4v-80c0-2.209,1.791-4,4-4s4,1.791,4,4v80C90,488.209,88.209,490,86,490z"></path></g><g><path d="M286,490c-2.209,0-4-1.791-4-4v-80c0-2.209,1.791-4,4-4s4,1.791,4,4v80C290,488.209,288.209,490,286,490z"></path></g><g><path d="M186,230c-57.346,0-104-46.654-104-104S128.654,22,186,22s104,46.654,104,104S243.346,230,186,230z M186,30      c-52.935,0-96,43.065-96,96s43.065,96,96,96s96-43.065,96-96S238.935,30,186,30z"></path></g></g><g><path d="M456.001,340c-1.041,0-2.063-0.406-2.829-1.172L426,311.657l-27.172,27.171c-1.145,1.145-2.868,1.484-4.358,0.867     c-1.495-0.619-2.47-2.077-2.47-3.695v-88.047c0-1.43,0.763-2.751,2.002-3.465c1.238-0.715,2.765-0.713,4.001,0.003     C406.493,249.403,416.174,252,426,252s19.507-2.597,27.997-7.509c1.237-0.717,2.764-0.717,4.001-0.003     c1.239,0.714,2.002,2.035,2.002,3.465V336c0,1.618-0.975,3.076-2.47,3.695C457.036,339.9,456.516,340,456.001,340z M426,302     c1.023,0,2.048,0.391,2.828,1.172L452,326.343v-71.866c-8.154,3.628-17.024,5.523-26,5.523s-17.846-1.896-26-5.523v71.866     l23.172-23.171C423.952,302.391,424.977,302,426,302z"></path></g><g><path d="M426,260c-11.231,0-22.298-2.969-32.003-8.585C374.261,239.993,362,218.759,362,196c0-35.29,28.71-64,64-64     s64,28.71,64,64c0,22.759-12.261,43.993-31.996,55.415C448.298,257.031,437.231,260,426,260z M426,140c-30.879,0-56,25.122-56,56     c0,19.914,10.73,38.495,28.004,48.491C406.493,249.403,416.174,252,426,252s19.507-2.597,27.997-7.509     C471.27,234.495,482,215.914,482,196C482,165.122,456.879,140,426,140z"></path></g><g><path d="M426,230c-5.968,0-11.847-1.577-17.003-4.561C398.513,219.372,392,208.092,392,196c0-18.748,15.252-34,34-34     s34,15.252,34,34c0,12.092-6.513,23.372-16.996,29.439C437.847,228.423,431.968,230,426,230z M426,170c-14.337,0-26,11.664-26,26     c0,9.246,4.982,17.873,13.004,22.515c3.939,2.28,8.434,3.485,12.996,3.485s9.057-1.205,12.997-3.485     C447.018,213.873,452,205.246,452,196C452,181.664,440.337,170,426,170z"></path></g></g></g></svg>