<svg height='300px' width='300px'  fill="#000000" xmlns="http://www.w3.org/2000/svg" xmlns:xlink="http://www.w3.org/1999/xlink" version="1.1" x="0px" y="0px" viewBox="0 0 43 43" enable-background="new 0 0 43 43" xml:space="preserve"><path d="M22.043,12.824c-0.425-0.038-0.767,0.12-1.021,0.472c-0.255,0.352-0.45,0.9-0.585,1.645  c-0.081,0.485-0.077,0.859,0.01,1.121c0.088,0.262,0.254,0.403,0.499,0.424c0.215,0.019,0.414-0.014,0.598-0.099  c0.184-0.084,0.355-0.255,0.518-0.513c0.002-0.015,0.003-0.028,0.004-0.037c0-0.01,0.003-0.022,0.009-0.037l0.504-2.842  c-0.086-0.035-0.173-0.063-0.26-0.087S22.14,12.833,22.043,12.824z"></path><path d="M32.833,15.375h-1.988v1.75h1.988c1.204,0,1.876,0.248,2.239,0.688c-1.011,0.995-3.317,3.266-5.583,5.493V7.2  c0-0.552-0.447-1-1-1H14.511c-0.553,0-1,0.448-1,1v16.107c-2.266-2.227-4.572-4.498-5.583-5.493  c0.363-0.441,1.035-0.688,2.239-0.688h1.988v-1.75h-1.988c-3.616,0-4.375,2.107-4.375,3.875v12.675c0,2.688,2.187,4.875,4.875,4.875  h21.666c2.688,0,4.875-2.187,4.875-4.875V19.25C37.208,17.482,36.449,15.375,32.833,15.375z M16.703,14.259  c0.212-1.633,0.817-2.9,1.814-3.806c0.998-0.905,2.241-1.292,3.73-1.162c1.485,0.13,2.582,0.695,3.291,1.695  c0.71,1,0.963,2.303,0.761,3.909c-0.107,0.834-0.417,1.534-0.927,2.101c-0.509,0.566-1.219,0.81-2.128,0.729  c-0.3-0.025-0.552-0.133-0.756-0.321c-0.204-0.188-0.339-0.437-0.404-0.748c-0.196,0.3-0.427,0.518-0.691,0.652  c-0.266,0.136-0.567,0.188-0.905,0.159c-0.541-0.047-0.937-0.313-1.187-0.794c-0.249-0.482-0.304-1.096-0.16-1.841  c0.181-0.966,0.524-1.723,1.03-2.271c0.507-0.548,1.084-0.792,1.732-0.736c0.445,0.039,0.799,0.12,1.061,0.244  s0.545,0.303,0.849,0.538l-0.019,0.022l0.028,0.002l-0.582,3.272c-0.059,0.362-0.054,0.614,0.016,0.755  c0.068,0.142,0.173,0.219,0.311,0.23c0.441,0.039,0.813-0.139,1.116-0.534c0.304-0.396,0.499-0.911,0.586-1.549  c0.18-1.351,0.01-2.431-0.509-3.242c-0.519-0.811-1.39-1.27-2.614-1.378c-1.163-0.102-2.128,0.226-2.894,0.983  c-0.767,0.756-1.238,1.819-1.416,3.188c-0.185,1.357,0.001,2.456,0.559,3.297c0.557,0.842,1.422,1.314,2.597,1.416  c0.326,0.03,0.666,0.021,1.021-0.025c0.354-0.047,0.66-0.117,0.92-0.21l0.145,0.866c-0.271,0.139-0.608,0.236-1.015,0.291  c-0.404,0.056-0.797,0.066-1.178,0.033c-1.52-0.133-2.648-0.713-3.389-1.74C16.757,17.258,16.492,15.916,16.703,14.259z   M7.542,31.925V19.25c0-0.021,0.001-0.041,0.001-0.061c1.756,1.729,5.4,5.315,7.965,7.833L8.32,33.983  C7.837,33.433,7.542,32.713,7.542,31.925z M32.333,35.05H10.667c-0.479,0-0.932-0.111-1.338-0.305l7.071-6.848  c0.539,0.529,0.998,0.979,1.33,1.302c1.185,1.157,2.7,1.934,3.77,1.934c1.07,0,2.585-0.777,3.77-1.934  c0.332-0.324,0.791-0.773,1.33-1.302l7.071,6.848C33.265,34.939,32.813,35.05,32.333,35.05z M35.458,31.925  c0,0.788-0.295,1.507-0.778,2.058l-7.188-6.961c2.564-2.518,6.209-6.104,7.965-7.833c0,0.021,0.001,0.041,0.001,0.062V31.925z"></path></svg>