<svg height='300px' width='300px'  fill="#000000" xmlns="http://www.w3.org/2000/svg" xmlns:xlink="http://www.w3.org/1999/xlink" version="1.1" x="0px" y="0px" viewBox="0 0 96 96" enable-background="new 0 0 96 96" xml:space="preserve"><g><path d="M71.536,31.466c-2.718,0-5.411,0.664-7.83,1.926c-2.093-7.233-8.695-12.23-16.273-12.23   c-7.34,0-13.892,4.807-16.134,11.759c-2.175-0.966-4.472-1.455-6.835-1.455c-9.354,0-16.963,7.61-16.963,16.964   s7.61,16.964,16.963,16.964h17.81v-1h-17.81c-8.802,0-15.963-7.161-15.963-15.964s7.161-15.964,15.963-15.964   c2.403,0,4.734,0.538,6.929,1.601l0.536,0.259l0.163-0.572c1.942-6.824,8.251-11.591,15.342-11.591   c7.334,0,13.695,4.974,15.471,12.095l0.16,0.641l0.573-0.327c2.41-1.376,5.142-2.104,7.899-2.104   c8.803,0,15.964,7.161,15.964,15.965c0,8.802-7.161,15.962-15.964,15.962h-17.81v1h17.81c9.354,0,16.964-7.609,16.964-16.962   C88.5,39.076,80.89,31.466,71.536,31.466z"></path><path d="M48,44.372l-6.535,13.071H47.5v17.396h1V57.443h6.036L48,44.372z M43.082,56.443L48,46.608l4.917,9.835H43.082z"></path></g></svg>